<svg width="555" height="550" viewBox="0 0 555 550" fill="none" xmlns="http://www.w3.org/2000/svg">
<path d="M203.27 489.09C205.2 489.07 207.339 489.621 208.039 490.311C208.969 491.251 209.299 496.61 209.289 510.83C209.269 527.19 209.53 530.6 211.02 533.57C211.98 535.49 213.78 537.51 215.02 538.07C216.26 538.62 219.07 539.08 221.27 539.08C223.47 539.08 226.45 538.52 227.88 537.83C229.32 537.14 231.149 535.01 231.949 533.08C233.029 530.49 233.45 524.56 233.59 510.19C233.77 490.981 233.79 490.8 236.1 489.69C237.72 488.92 239.53 488.88 245.77 490.58L246.039 509.08C246.209 520.53 245.87 529.68 245.14 533.08C244.25 537.25 242.969 539.62 239.869 542.88C237.619 545.24 234.42 547.571 232.77 548.061C231.119 548.541 227.519 549.22 224.77 549.55C222.02 549.89 217.3 549.68 214.27 549.09C211.25 548.5 207.3 547.02 205.5 545.8C203.59 544.51 201.1 541.27 199.55 538.08C196.98 532.79 196.86 531.81 196.42 511.86C195.99 492.251 196.069 491.08 197.869 490.14C198.919 489.59 201.35 489.12 203.27 489.09ZM415.27 489.09C419.4 489.07 424.8 489.72 427.27 490.53C429.75 491.34 433.68 493.82 436.02 496.04C439.43 499.28 440.7 501.52 442.42 507.33C444.09 512.99 444.43 516.12 444 521.58C443.69 525.43 442.95 530.27 442.35 532.33C441.76 534.39 439.81 537.971 438.02 540.271C436.229 542.57 432.749 545.53 430.27 546.84C426.56 548.8 424.2 549.23 416.77 549.32C410.26 549.39 406.66 548.94 403.77 547.69C401.57 546.74 398.31 544.861 396.52 543.521C394.73 542.18 392.189 538.72 390.859 535.83C389.529 532.93 388.12 527.44 387.729 523.58C387.259 519 387.449 514.68 388.279 511.08C388.969 508.06 390.339 504.01 391.319 502.08C392.289 500.16 394.37 497.37 395.93 495.89C397.49 494.41 400.8 492.28 403.27 491.16C406.48 489.71 409.92 489.11 415.27 489.09ZM42.0195 489.1C43.8095 489.09 46.1695 489.53 47.2695 490.08C49.0995 490.99 49.2695 492.08 49.2695 502.58C49.2695 511.41 49.5596 513.95 50.5195 513.53C51.2095 513.22 55.1495 508.67 59.2695 503.41C63.3993 498.15 67.6693 492.851 68.7695 491.65C70.3795 489.88 71.8295 489.46 76.1895 489.51C79.1693 489.55 81.769 490.03 81.9893 490.58C82.1993 491.13 78.2993 496.76 73.3193 503.08C68.3494 509.41 64.2898 515.26 64.2998 516.08C64.3098 516.91 66.3993 520.96 68.9492 525.08C71.4892 529.21 75.5299 535.62 77.9199 539.33C80.3199 543.04 82.2695 546.64 82.2695 547.33C82.2695 548.16 80.2795 548.66 70.2695 549.08L63.5195 538.69C59.81 532.981 56.2806 527.472 55.6699 526.44C54.72 524.821 54.2396 524.74 51.9199 525.83C49.3199 527.06 49.2698 527.27 49.2598 536.83C49.2498 542.19 48.9098 547.16 48.5098 547.86C48.0196 548.71 45.9291 549.04 36.7695 548.58L36.3496 519.65C35.9896 495.33 36.1496 490.59 37.3496 489.91C38.1296 489.47 40.2295 489.1 42.0195 489.1ZM173.52 489.04C179.25 489.07 180.42 489.38 181.27 491.08C181.89 492.31 182.18 503.8 181.77 548.58L176.52 548.83C173.63 548.97 171.179 548.97 171.069 548.83C170.969 548.685 170.629 539.352 169.77 507.58L167.979 511.58C166.989 513.78 165.57 517.83 164.81 520.58C164.06 523.33 162.22 529.18 160.72 533.58C159.23 537.98 157.28 543.16 156.39 545.08C154.82 548.46 154.58 548.58 143.8 548.58L137.779 529.58C134.47 519.131 131.31 509.822 130.77 508.9C130.09 507.76 129.88 513.19 130.1 525.9C130.27 536.17 130.16 545.59 129.85 546.83C129.35 548.79 128.62 549.08 124.27 549.08C120.72 549.08 119.13 548.65 118.77 547.58C118.5 546.76 118.179 533.8 118.069 518.78C117.909 496.441 118.13 491.261 119.27 490.28C120.04 489.62 122.72 489.08 125.22 489.07C127.72 489.06 131.12 489.31 132.77 489.62C135.69 490.16 135.929 490.66 141.109 506.88C144.049 516.06 147.05 525.38 147.77 527.58C148.5 529.78 149.58 531.69 150.18 531.83C150.78 531.97 151.989 529.49 152.869 526.33C153.749 523.17 155.549 518.22 156.869 515.33C158.189 512.44 159.27 509.41 159.27 508.58C159.27 507.76 160.459 503.59 161.909 499.33C163.369 495.07 165.049 491 165.659 490.29C166.379 489.45 169.19 489.01 173.52 489.04ZM269.27 489.13C272.299 489.12 275.319 489.44 275.979 489.85C276.649 490.25 278.039 492.16 279.079 494.08C280.119 496.01 283.16 501.41 285.84 506.08C288.519 510.759 291.059 514.689 291.489 514.83C291.919 514.97 292.28 515.64 292.29 516.33C292.31 517.02 294.559 521.18 302.279 533.58L302.229 512.58C302.189 494.341 302.399 491.38 303.829 490.08C305.129 488.89 306.23 488.79 312.77 490.58L313.05 517.58C313.21 532.43 313.09 545.59 312.8 546.83C312.31 548.92 311.73 549.08 297.27 549.08L291.89 539.83C288.93 534.74 285.63 529.01 284.54 527.08C283.46 525.16 281.08 520.88 279.26 517.58C277.43 514.28 275.229 510.8 274.359 509.85C273.48 508.9 272.43 508.33 272.02 508.6C271.61 508.86 271.57 516.39 271.92 525.33C272.28 534.27 272.28 543.27 271.92 545.33C271.27 549.08 271.27 549.08 266.27 549.08C262.72 549.08 261.13 548.65 260.77 547.58C260.5 546.76 260.2 533.73 260.1 518.63C259.94 492.48 260.02 491.13 261.85 490.16C262.91 489.6 266.25 489.13 269.27 489.13ZM330.01 490.24C331.34 489.22 334.72 489 343.77 489.34C353.94 489.72 356.69 490.19 361.77 492.42C365.83 494.2 368.88 496.431 371.21 499.311C373.09 501.661 375.03 504.93 375.5 506.58C375.97 508.23 376.74 511.61 377.22 514.08C377.82 517.19 377.65 520.9 376.64 526.08C375.85 530.21 374.61 534.48 373.89 535.58C373.17 536.68 371.26 538.93 369.64 540.58C368.03 542.23 364.469 544.69 361.739 546.05C357.189 548.31 355.609 548.52 328.77 548.58L328.51 520.08C328.26 493.82 328.38 491.47 330.01 490.24ZM417.77 499.53C414.04 499.11 411.9 499.421 409.34 500.771C407.46 501.77 404.98 503.85 403.84 505.41C402.05 507.85 401.77 509.69 401.77 518.91C401.77 527.16 402.17 530.32 403.52 532.83C404.48 534.62 406.62 536.75 408.27 537.58C409.92 538.41 413.41 539.09 416.02 539.11C419.32 539.13 421.82 538.44 424.22 536.86C426.7 535.22 428.049 533.32 428.989 530.08C429.719 527.6 430.25 522.2 430.17 518.08C430.1 513.95 429.469 509.23 428.779 507.58C428.089 505.93 426.459 503.57 425.149 502.34C423.619 500.9 420.989 499.9 417.77 499.53ZM347.439 500.08C344.78 500.08 342.23 500.38 341.77 500.75C341.31 501.11 341.01 509.44 341.1 519.25C341.25 535.119 341.46 537.18 343.02 537.97C343.98 538.46 346.68 538.69 349.02 538.47C351.36 538.26 354.62 537.41 356.27 536.58C357.92 535.75 360.249 533.62 361.439 531.83C362.639 530.04 363.919 526.1 364.289 523.08C364.659 520.06 364.529 515.56 363.989 513.08C363.459 510.6 362.069 507.26 360.899 505.65C359.729 504.03 357.31 502.12 355.52 501.4C353.73 500.67 350.099 500.08 347.439 500.08ZM108.829 523.83C109.129 525.34 109.13 527.82 108.27 532.08L87.7695 531.58L87.4697 526.33L87.1592 521.08H108.27L108.829 523.83ZM68.3896 0.310547C131.719 0.600544 137.18 0.759765 142.27 2.46973C145.29 3.47972 149.57 5.54004 151.77 7.04004C153.969 8.54001 157.44 11.5297 159.47 13.6797C161.54 15.8597 164.41 20.6603 165.97 24.5703C168.48 30.8401 168.759 32.6805 168.649 42.5703C168.559 50.5502 167.91 55.7801 166.31 61.5801C165.09 65.9801 162.67 72.5101 160.93 76.0801C159.19 79.65 154.79 86.6301 151.13 91.5801C147.48 96.5301 141.84 103.06 138.6 106.08C135.36 109.1 131.129 112.93 129.199 114.58C127.269 116.23 123.459 119.4 120.729 121.64C118 123.87 108.65 130.62 99.96 136.64C91.26 142.65 80.01 150.52 74.96 154.11C69.9 157.7 64.4691 161.75 62.8691 163.11C61.2789 164.471 57.2895 168.28 54.0098 171.58C50.5398 175.07 46.8292 180.09 45.1592 183.58C42.9192 188.22 42.2695 191 42.2695 195.83C42.2695 201.03 42.6895 202.58 44.7695 205.08C46.2595 206.87 48.8795 208.48 51.2695 209.08C53.7695 209.71 57.4196 209.75 61.0195 209.19C64.1795 208.71 70.3695 206.87 74.7695 205.12C79.1695 203.37 85.4695 200.47 88.7695 198.68C92.0695 196.89 98.3696 193.26 102.77 190.61C107.17 187.96 115.49 182.39 121.27 178.25C127.039 174.1 135.369 167.77 139.77 164.19C144.17 160.6 149.76 155.84 152.18 153.62C154.61 151.4 159.56 146.63 163.18 143.021C166.81 139.411 172.71 133.111 176.3 129.021C179.9 124.931 184.43 119.56 186.38 117.08C188.33 114.6 192.2 109.2 194.97 105.08C197.74 100.95 200.89 96.0101 201.97 94.0801C203.05 92.15 205.77 86.98 208.02 82.5801C210.27 78.1801 213.379 70.5301 214.939 65.5801C217.569 57.2001 217.77 55.4401 217.75 40.0801C217.74 24.1702 217.63 23.33 214.84 16.5801C213.24 12.7301 211.119 8.34008 210.109 6.83008C209.099 5.32008 208.27 3.18006 208.27 2.08008C208.27 0.0900781 208.81 0.0801953 282.52 0.450195C345.99 0.770195 358.22 1.06023 366.77 2.49023C372.27 3.41024 381.04 5.28016 386.27 6.66016C391.5 8.03016 398.02 9.86047 400.77 10.7305C403.52 11.5905 409.82 13.9101 414.77 15.8701C419.72 17.8301 428.27 21.7 433.77 24.46C439.27 27.2199 448.5 32.5999 454.27 36.4199C460.04 40.2299 468.6 46.5204 473.27 50.4004C477.94 54.2704 486.01 61.7398 491.189 67.0098C496.369 72.2697 503.289 79.95 506.579 84.0801C509.869 88.2001 515.13 95.4001 518.26 100.08C521.4 104.76 526.449 113.31 529.489 119.08C532.529 124.85 536.59 133.4 538.51 138.08C540.42 142.76 543.16 150.18 544.59 154.58C546.01 158.98 548.08 166.18 549.18 170.58C550.28 174.98 551.92 183.08 552.81 188.58C554.15 196.82 554.32 203.06 553.8 224.08C553.44 238.1 552.72 253.85 552.18 259.08C551.64 264.31 550.089 272.74 548.729 277.83C547.38 282.92 544.869 291.24 543.149 296.33C541.429 301.42 538.08 309.85 535.71 315.08C533.33 320.31 530.149 326.83 528.649 329.58C527.139 332.33 522.699 339.53 518.77 345.58C514.85 351.63 509.44 359.28 506.76 362.58C504.07 365.88 500.049 370.56 497.819 372.98C495.589 375.401 490.389 380.67 486.27 384.7C482.14 388.73 474.27 395.53 468.77 399.82C463.27 404.11 454.5 410.271 449.27 413.521C444.039 416.76 434.709 421.82 428.52 424.75C422.33 427.68 415.36 430.78 413.02 431.63C410.68 432.48 405.62 434.23 401.77 435.521C397.92 436.811 391.849 438.62 388.27 439.53C384.69 440.45 380.19 441.6 378.27 442.08C376.35 442.57 369.819 443.74 363.77 444.68C354.33 446.14 345.67 446.36 302.77 446.19C275.27 446.08 247.82 445.58 241.77 445.09C235.72 444.6 228.07 443.33 224.77 442.29C221.47 441.24 217.42 439.53 215.77 438.49C214.12 437.45 211.029 435.02 208.909 433.09C206.789 431.16 203.369 426.21 201.319 422.08C199.269 417.95 196.41 410.98 194.97 406.58C193.53 402.18 190.95 393.85 189.25 388.08C187.54 382.31 185.009 373.75 183.619 369.08C182.219 364.41 179.51 355.63 177.59 349.58C175.67 343.53 171.699 332.95 168.779 326.08C165.859 319.2 161.789 310.43 159.739 306.58C157.679 302.73 154.17 296.65 151.92 293.08C149.68 289.51 145.6 283.65 142.85 280.08C140.11 276.51 136.269 271.84 134.319 269.72C132.369 267.6 127.619 263.3 123.77 260.18C119.92 257.05 112.939 252.57 108.27 250.23C101.02 246.6 98.4495 245.86 90.7695 245.16C85.8195 244.7 78.6195 244.71 74.7695 245.17C70.9195 245.62 66.4195 246.4 64.7695 246.9C63.1195 247.4 60.3596 248.65 58.6396 249.69C56.9096 250.73 53.7491 253.15 51.6191 255.08C49.4892 257.01 46.4594 261.28 44.8994 264.58C43.3294 267.88 41.8296 272.6 41.5596 275.08C41.2896 277.56 41.5599 282.28 42.1699 285.58C42.7699 288.88 44.7193 294.51 46.4893 298.08C48.6093 302.37 52.1298 306.97 56.7998 311.58C61.2399 315.96 71.8997 324 85.3096 333.08C100.189 343.15 109.599 350.33 116.119 356.58C121.279 361.53 126.369 367.16 127.439 369.08C128.499 371 130.829 375.06 132.619 378.08C134.419 381.1 136.68 386.73 137.64 390.58C138.61 394.43 139.66 401.85 139.97 407.08C140.42 414.43 140.159 417.94 138.819 422.58C137.869 425.88 135.619 430.83 133.829 433.58C132.029 436.33 129.139 439.82 127.409 441.33C125.679 442.84 122.579 444.53 120.52 445.07C118.269 445.67 96.1892 446.07 65.2695 446.08C36.9401 446.09 10.9505 445.75 7.50977 445.34C4.06979 444.92 1.24981 444.24 1.25977 443.83C1.26977 443.42 2.79969 440.72 4.67969 437.83C6.55968 434.94 9.0595 429.66 10.2295 426.08C11.4995 422.25 12.7794 414.64 13.3594 407.58C13.9694 400.12 14.2098 326.85 14.0098 214.08C13.7198 51.6001 13.5091 31.9001 12.0791 26.0801C11.1891 22.5101 9.3199 17.1001 7.91992 14.0801C6.50993 11.0501 4.14969 6.65005 2.67969 4.29004L0 0L68.3896 0.310547ZM409.52 315.15C390.89 315.2 383.54 315.58 379.77 316.69C377.02 317.49 372.97 318.91 370.77 319.84C368.57 320.77 364.52 322.93 361.77 324.65C359.02 326.37 356.1 328.42 355.27 329.21C354.45 329.99 350.569 333.32 346.649 336.61C342.729 339.89 335.759 344.73 331.149 347.35C326.539 349.98 319.17 353.23 314.77 354.58C310.37 355.92 305.951 357.6 304.96 358.3C303.22 359.53 303.25 359.88 305.6 366.58C306.95 370.43 309.039 376.28 310.239 379.58C311.439 382.88 313.049 386.93 313.819 388.58C314.599 390.23 316.849 395.63 318.819 400.58C320.799 405.53 323.06 410.59 323.85 411.83C325.18 413.94 325.96 414.08 336.02 414.08C341.93 414.09 351.83 413.41 358.02 412.58C364.21 411.76 369.61 410.88 370.02 410.63C370.43 410.38 373.47 409.65 376.77 409.021C380.07 408.38 387.72 406.17 393.77 404.12C399.82 402.06 409.27 398.21 414.77 395.55C420.27 392.9 427.7 388.92 431.27 386.72C434.85 384.51 442.05 379.53 447.27 375.64C452.499 371.76 460.619 364.75 465.329 360.08C470.039 355.41 475.53 349.56 477.55 347.08C479.56 344.6 481.23 341.91 481.25 341.08C481.27 340.25 478.929 337.28 476.029 334.47C473.139 331.66 468.519 327.86 465.77 326.03C463.02 324.19 458.07 321.61 454.77 320.28C451.47 318.96 445.51 317.25 441.52 316.48C436.44 315.5 426.85 315.1 409.52 315.15ZM296.27 121.1C296 121.11 293.52 122.82 290.77 124.91C288.02 127 282.17 131.18 277.77 134.2C273.37 137.23 265.27 142.24 259.77 145.34C254.27 148.44 243.25 153.97 235.27 157.62C227.3 161.28 215.6 166.3 209.27 168.79C202.95 171.28 194.85 174.35 191.27 175.63C187.7 176.9 178.02 180.51 169.77 183.65C161.52 186.79 152.97 190 150.77 190.79C148.57 191.59 145.2 192.931 143.27 193.771C141.349 194.621 135.949 197.15 131.27 199.39C126.6 201.63 121.41 204.39 119.75 205.521C118.08 206.661 115.569 208.48 114.149 209.58C112.739 210.68 110.369 213.38 108.899 215.58C107.389 217.82 106.24 220.9 106.27 222.58C106.31 224.23 106.88 226.29 107.55 227.15C108.22 228.02 110.35 229.27 112.27 229.92C114.2 230.58 119.82 231.11 124.77 231.1C129.72 231.09 137.37 230.44 141.77 229.67C146.17 228.9 151.57 227.6 153.77 226.79C155.97 225.98 165.42 222.79 174.77 219.7C184.12 216.62 196.38 213.19 202.02 212.09C207.66 210.98 215.31 210.08 219.02 210.07C222.73 210.07 228.47 210.76 231.77 211.61C235.07 212.45 240.18 214.82 243.13 216.86C246.08 218.91 250.73 223.51 253.47 227.08C256.21 230.65 260.37 237.63 262.71 242.58C265.04 247.53 268.12 254.96 269.55 259.08C270.98 263.21 273.3 270.63 274.72 275.58C276.14 280.53 280.329 293.81 284.029 305.08L290.77 325.58C298.87 325.52 303.43 324.43 307.77 322.68C311.619 321.13 317.25 318.13 320.27 316.021C323.299 313.901 327.569 310.55 329.77 308.57C331.97 306.59 336.47 302.9 339.77 300.38C343.07 297.86 349.37 294.07 353.77 291.97C358.17 289.87 365.82 286.91 370.77 285.4L379.77 282.65C434.099 282.95 442.41 283.34 448.27 284.6C452.399 285.49 458.47 287.12 461.77 288.22C465.069 289.33 471.769 292.33 476.659 294.91C481.549 297.48 488.639 302.17 492.409 305.33C496.389 308.67 499.9 310.87 500.77 310.58C501.6 310.31 503.229 308.17 504.409 305.83C505.579 303.49 508.08 297.76 509.96 293.08C511.85 288.4 514.92 278.73 516.8 271.58C518.67 264.43 520.76 254.31 521.43 249.08C522.1 243.85 522.649 232.38 522.649 223.58C522.649 214.78 522.06 203.08 521.35 197.58C520.63 192.08 518.579 181.96 516.779 175.08C514.979 168.21 512.4 159.65 511.05 156.08C509.69 152.51 508.08 148.68 507.46 147.58C506.85 146.48 504.54 141.76 502.34 137.08C500.13 132.4 497.469 127.46 496.439 126.08C494.88 124.02 494.41 123.85 493.76 125.08C493.33 125.9 492.639 138.06 492.239 152.08C491.599 174 491.19 178.63 489.3 185.08C488.09 189.21 485.359 195.51 483.239 199.08C481.119 202.65 477.229 207.79 474.579 210.49C471.929 213.2 467.069 217.151 463.77 219.271C460.469 221.401 454.169 224.31 449.77 225.74C445.37 227.18 438.4 228.57 434.27 228.84C428.6 229.21 424.579 228.79 417.77 227.11C412.81 225.89 405.86 223.26 402.27 221.26C398.7 219.27 392.91 214.92 389.42 211.61C385.92 208.29 381.569 203.1 379.739 200.08C377.919 197.06 375.23 190.98 373.77 186.58C371.84 180.78 370.899 175.28 370.329 166.58C369.659 156.27 369.149 153.76 366.659 148.771C365.069 145.571 361.92 140.851 359.67 138.271C357.41 135.691 353.14 132.26 350.17 130.65C347.2 129.05 342.52 127.14 339.77 126.42C337.02 125.69 332.3 125.1 329.27 125.09C326.25 125.08 317.7 124.17 310.27 123.08C302.85 121.99 296.55 121.09 296.27 121.1ZM335.539 33.0801L334.85 44.3301C334.47 50.52 333.47 58.9601 332.63 63.0801C331.79 67.2101 329.72 73.9601 328.02 78.0801C326.33 82.21 324.34 86.48 323.6 87.5801C322.86 88.6801 322.26 90.1401 322.26 90.8301C322.27 91.6801 324.89 92.2599 330.52 92.6299C335.06 92.9399 341.24 93.6404 344.27 94.1904C347.29 94.7404 352.24 96.1398 355.27 97.2998C358.29 98.4598 362.79 100.55 365.27 101.94C367.74 103.33 372.24 106.33 375.27 108.6C378.29 110.88 382.57 114.96 384.77 117.66C386.969 120.37 389.029 122.81 389.359 123.08C389.679 123.35 391.41 126.28 393.21 129.58C395.01 132.88 397.489 138.28 398.739 141.58C399.979 144.88 401.319 149.83 401.699 152.58C402.079 155.33 402.5 161.18 402.64 165.58C402.84 171.58 403.519 174.95 405.399 179.08C406.769 182.1 409.449 186.069 411.329 187.89C413.219 189.71 416.35 192.021 418.27 193.021C420.19 194.02 424.02 195.31 426.77 195.9C430.199 196.63 433.18 196.65 436.27 195.96C438.739 195.4 442.949 193.74 445.619 192.26C448.279 190.79 451.639 188.01 453.069 186.08C454.499 184.15 456.549 180.56 457.619 178.08C459.219 174.4 459.719 170.02 460.369 154.08C460.809 143.35 461.19 123.22 461.22 109.33C461.25 95.4403 460.87 83.2904 460.39 82.3301C459.9 81.3701 455.97 77.84 451.64 74.5C447.31 71.15 440.39 66.1496 436.27 63.3896C432.14 60.6297 424.939 56.3601 420.27 53.9102C415.6 51.4602 407.04 47.6104 401.27 45.3604C395.49 43.1104 386.27 40.0698 380.77 38.5898C375.27 37.1098 365.599 35.2702 359.27 34.4902C352.94 33.7102 345.019 33.0801 341.649 33.0801H335.539Z" fill="black"/>
</svg>
